<svg width="14" height="14" viewBox="0 0 14 14" fill="none" xmlns="http://www.w3.org/2000/svg">
<path opacity="0.84" fill-rule="evenodd" clip-rule="evenodd" d="M8.41422 6.99963L13.364 2.04988C13.7545 1.65936 13.7545 1.02619 13.364 0.635667C12.9734 0.245142 12.3403 0.245142 11.9497 0.635667L7 5.58541L2.05025 0.635667C1.65973 0.245142 1.02656 0.245142 0.636041 0.635667C0.245516 1.02619 0.245516 1.65936 0.636041 2.04988L5.58579 6.99963L0.636041 11.9494C0.245516 12.3399 0.245516 12.9731 0.636041 13.3636C1.02656 13.7541 1.65973 13.7541 2.05025 13.3636L7 8.41384L11.9497 13.3636C12.3403 13.7541 12.9734 13.7541 13.364 13.3636C13.7545 12.9731 13.7545 12.3399 13.364 11.9494L8.41422 6.99963Z" fill="#82828C"/>
</svg>
