<svg width="18" height="18" viewBox="0 0 18 18" fill="none" xmlns="http://www.w3.org/2000/svg">
<path fill-rule="evenodd" clip-rule="evenodd" d="M11.3851 12.4457C8.73479 14.5684 4.85535 14.4013 2.39857 11.9445C-0.23747 9.3085 -0.23747 5.03464 2.39857 2.3986C5.03461 -0.23744 9.30847 -0.23744 11.9445 2.3986C14.4013 4.85538 14.5684 8.73481 12.4457 11.3851L17.6013 16.5407C17.8942 16.8336 17.8942 17.3085 17.6013 17.6014C17.3085 17.8943 16.8336 17.8943 16.5407 17.6014L11.3851 12.4457ZM3.45923 10.8839C1.40898 8.83363 1.40898 5.50951 3.45923 3.45926C5.50948 1.40901 8.8336 1.40901 10.8839 3.45926C12.9326 5.50801 12.9341 8.82875 10.8884 10.8794C10.8868 10.8809 10.8853 10.8823 10.8838 10.8839C10.8823 10.8854 10.8808 10.8869 10.8793 10.8884C8.82873 12.9341 5.50798 12.9326 3.45923 10.8839Z" fill="#C2C2C8"/>
</svg>
